<!DOCTYPE svg PUBLIC "-//W3C//DTD SVG 20010904//EN" "http://www.w3.org/TR/2001/REC-SVG-20010904/DTD/svg10.dtd">
<svg version="1.0" xmlns="http://www.w3.org/2000/svg" viewBox="0 0 16000 13840">
<g id="layer1" fill="#f8de01" stroke="none">
 <path d="M0 9118 l0 -443 225 225 225 225 -217 217 c-120 120 -221 218 -225 218 -5 0 -8 -199 -8 -442z"/>
 <path d="M555 2477 c-3 -6 -4 -179 -3 -382 l3 -370 374 -3 c248 -1 378 1 385 8 7 7 -106 127 -364 385 -206 206 -378 375 -383 375 -4 0 -10 -6 -12 -13z"/>
 <path d="M14977 2314 c-30 -33 -301 -329 -601 -659 l-546 -599 24 -26 c12 -14 228 -251 480 -527 l457 -503 604 0 605 0 -1 658 0 657 -474 519 c-261 286 -478 523 -484 529 -6 6 -29 -12 -64 -49z"/>
 </g>
<g id="layer2" fill="#dde6e8" stroke="none">
 <path d="M35 13833 c11 -2 29 -8 40 -13 11 -5 3089 -372 6840 -815 3751 -444 7326 -867 7945 -940 619 -73 1128 -131 1132 -129 5 3 8 432 8 955 l0 949 -7992 -1 c-4396 -1 -7984 -3 -7973 -6z"/>
 </g>
<g id="layer3" fill="#ffae00" stroke="none">
 <path d="M0 11744 l0 -2099 1870 1870 c1202 1202 1866 1873 1860 1879 -10 10 -3328 407 -3555 426 -66 5 -132 13 -147 16 l-28 6 0 -2098z"/>
 <path d="M13625 9315 c-1303 -1433 -2391 -2629 -2417 -2658 l-47 -53 1929 -2119 c1061 -1165 1928 -2123 1927 -2129 -1 -5 3 -10 10 -11 6 0 206 -214 443 -475 238 -261 454 -497 481 -525 l49 -50 0 5313 c0 2921 -1 5312 -2 5311 -2 0 -1069 -1172 -2373 -2604z"/>
 <path d="M0 1357 l0 -1357 1357 0 1358 0 -870 870 -870 870 -202 0 -203 0 0 203 0 202 -285 285 -285 285 0 -1358z"/>
 </g>
<g id="layer4" fill="#222222" stroke="none">
 <path d="M1867 11532 l-1867 -1867 0 -55 0 -55 215 -215 215 -215 -215 -215 -215 -216 0 -3000 0 -2999 278 -278 c153 -153 281 -275 285 -271 4 4 7 80 7 168 l0 161 365 -365 365 -365 -152 -3 c-84 -1 -160 -5 -168 -8 -9 -3 274 -293 850 -869 l865 -865 6052 0 c3329 0 6053 3 6053 6 0 4 -653 727 -926 1024 l-24 26 596 653 595 654 -24 26 c-13 14 -871 958 -1907 2096 -1036 1139 -1893 2081 -1906 2095 l-24 26 1762 1934 c969 1064 2053 2256 2410 2647 483 532 648 719 648 737 0 20 -6 25 -37 30 -43 7 -12206 1446 -12220 1446 -4 0 -848 -840 -1876 -1868z"/>
 </g>

</svg>