<!DOCTYPE svg PUBLIC "-//W3C//DTD SVG 20010904//EN" "http://www.w3.org/TR/2001/REC-SVG-20010904/DTD/svg10.dtd">
<svg version="1.0" xmlns="http://www.w3.org/2000/svg" width="1600px" height="879px" viewBox="0 0 16000 8790" preserveAspectRatio="xMidYMid meet">
<g id="layer1" fill="#ffffff" stroke="none">
 <path d="M0 7839 l0 -952 53 6 c352 37 15807 1871 15822 1877 11 5 38 11 60 13 22 2 -3554 4 -7947 5 l-7988 2 0 -951z"/>
 </g>
<g id="layer2" fill="#dde6e8" stroke="none">
 <path d="M15855 8778 c-55 -5 -3637 -427 -7960 -939 -4324 -511 -7868 -929 -7878 -929 -16 0 -17 -197 -17 -3455 l0 -3455 8000 0 8000 0 0 4395 0 4395 -22 -2 c-13 0 -68 -5 -123 -10z"/>
 </g>

</svg>